<?xml version="1.0" standalone="no"?>
<!DOCTYPE svg PUBLIC "-//W3C//DTD SVG 20010904//EN"
 "http://www.w3.org/TR/2001/REC-SVG-20010904/DTD/svg10.dtd">
<svg version="1.0" xmlns="http://www.w3.org/2000/svg"
 width="484.000000pt" height="415.000000pt" viewBox="0 0 484.000000 415.000000"
 preserveAspectRatio="xMidYMid meet">

<g transform="translate(0.000000,415.000000) scale(0.100000,-0.100000)"
fill="#000000" stroke="none">
<path d="M2095 3803 c-308 -27 -620 -136 -872 -305 -390 -261 -670 -677 -767
-1137 -76 -357 -44 -728 89 -1061 23 -58 54 -128 68 -155 72 -141 218 -344
320 -443 70 -69 97 -69 143 0 48 71 75 160 81 269 10 170 -14 235 -93 249
l-39 7 27 13 c53 25 129 -8 169 -74 10 -17 19 -25 19 -18 0 33 -46 95 -116
158 -51 46 -83 84 -95 112 -30 69 -23 79 21 30 29 -34 58 -53 107 -73 38 -15
74 -31 81 -37 18 -16 15 -3 -18 68 -41 90 -53 140 -45 193 l7 46 13 -42 c15
-51 45 -101 81 -133 15 -14 46 -51 69 -82 41 -54 43 -56 49 -33 8 33 -9 108
-39 167 -13 26 -20 48 -16 48 10 0 81 -77 97 -105 10 -17 13 -13 28 32 20 60
54 110 145 213 83 93 108 129 133 188 l19 47 -4 -48 c-3 -31 -21 -82 -52 -142
-26 -53 -48 -112 -51 -137 l-4 -43 24 50 c26 55 81 133 195 276 96 122 143
220 151 313 5 67 6 70 19 46 41 -73 53 -229 26 -335 -9 -33 -31 -91 -50 -129
l-35 -69 31 29 c16 15 71 110 121 209 80 157 100 188 157 246 42 42 102 87
166 124 222 128 294 188 341 281 l25 49 -7 -45 c-8 -58 -35 -126 -85 -217 -22
-40 -37 -73 -35 -73 3 0 33 39 67 88 145 204 220 251 492 313 70 16 141 36
157 44 85 44 12 -29 -115 -115 -55 -37 -118 -88 -141 -111 -58 -63 -118 -139
-112 -144 3 -3 64 40 136 95 204 154 292 190 467 190 114 0 234 -25 430 -90
220 -72 314 -93 420 -94 76 -1 97 3 132 22 48 25 73 65 73 114 l-1 33 -13 -38
c-18 -48 -29 -62 -70 -81 -49 -23 -145 -20 -261 8 -110 27 -258 77 -319 108
-67 34 -135 107 -199 215 -313 527 -807 847 -1409 912 -91 10 -242 12 -333 4z
m-55 -340 c12 -38 34 -88 48 -113 38 -68 130 -152 195 -180 31 -14 57 -28 57
-32 0 -4 -28 -22 -62 -39 -117 -59 -200 -162 -244 -301 -10 -32 -21 -58 -25
-58 -4 0 -15 26 -24 58 -40 137 -137 254 -250 304 -30 12 -55 28 -55 33 0 6
26 21 57 34 112 49 208 166 248 304 9 31 20 57 24 57 5 0 18 -30 31 -67z
m-738 -1040 c22 -61 69 -118 119 -144 37 -18 45 -39 15 -39 -7 0 -34 -18 -59
-40 -40 -36 -70 -83 -91 -145 -6 -16 -12 -8 -31 39 -27 67 -63 109 -117 137
-21 11 -38 21 -38 24 0 3 17 13 38 24 52 27 97 80 119 141 10 27 20 50 23 50
3 0 13 -21 22 -47z m-467 -1293 c11 -12 46 -37 79 -57 114 -68 152 -119 163
-223 7 -68 -4 -77 -31 -25 -10 19 -60 73 -111 119 -88 81 -115 118 -129 179
-8 32 4 35 29 7z"/>
<path d="M4578 2744 c-43 -23 -52 -100 -11 -92 13 3 17 12 16 33 -3 40 13 55
56 55 69 0 119 -85 108 -181 -9 -76 -41 -135 -109 -203 -120 -119 -274 -180
-500 -196 -130 -9 -211 -26 -301 -61 -49 -19 -307 -157 -307 -164 0 -7 70 14
200 58 85 29 162 49 208 53 87 8 97 -7 14 -22 -87 -17 -190 -69 -367 -187
-184 -121 -304 -184 -446 -231 -55 -19 -97 -36 -92 -39 14 -9 247 1 282 12 19
6 37 9 39 6 12 -11 -120 -59 -263 -96 -166 -42 -219 -65 -400 -173 -126 -76
-205 -104 -390 -137 l-130 -24 95 -11 c96 -13 190 -41 226 -69 18 -14 16 -15
-21 -8 -68 13 -167 7 -230 -15 -33 -11 -118 -49 -190 -83 l-130 -62 90 -23
c50 -13 122 -31 160 -41 l70 -17 -40 -12 c-26 -7 -90 -10 -180 -7 -163 5 -184
-1 -143 -44 14 -15 54 -69 87 -120 34 -51 78 -106 99 -124 l37 -31 -35 6 c-57
10 -114 43 -176 101 -32 30 -60 53 -62 50 -8 -8 49 -161 73 -198 14 -20 23
-37 19 -37 -24 0 -81 52 -118 108 -42 65 -106 135 -106 116 0 -5 7 -31 15 -58
8 -27 14 -51 12 -52 -2 -2 -34 19 -72 46 -38 28 -73 50 -76 50 -4 0 -10 -47
-14 -104 -7 -99 -5 -114 21 -181 7 -19 7 -19 -13 -2 -22 20 -40 62 -73 176
-36 124 -89 155 -200 116 -24 -8 -44 -14 -46 -12 -9 9 245 296 396 447 513
514 1044 851 1770 1125 113 42 207 79 209 81 45 43 -347 -89 -644 -218 -338
-146 -706 -362 -1000 -587 -343 -263 -725 -652 -962 -982 -87 -122 -193 -287
-193 -301 0 -14 25 -9 81 16 64 28 76 40 154 160 36 55 71 96 88 104 27 13 34
10 150 -56 195 -112 358 -175 561 -218 166 -35 468 -45 631 -19 613 94 1111
455 1385 1004 113 225 190 544 190 783 0 98 37 138 150 158 291 53 491 198
537 389 39 166 -71 309 -189 245z m-1378 -1612 c16 -52 78 -124 120 -142 38
-16 38 -22 -1 -39 -48 -21 -97 -79 -120 -143 l-22 -58 -23 56 c-25 62 -80 126
-125 145 -16 6 -29 14 -29 18 0 3 21 17 47 31 50 26 95 87 115 153 13 43 19
40 38 -21z"/>
</g>
</svg>
